<?xml version="1.0"?>
<svg width="640" height="480" xmlns="http://www.w3.org/2000/svg" xmlns:svg="http://www.w3.org/2000/svg">
 <!-- Created with SVG-edit - http://svg-edit.googlecode.com/ -->

 <g>
  <title>Layer 1</title>
  <text transform="rotate(-24.401735305786133 324.91265869140625,237.07072448730472) matrix(14.004837989807127,0,0,11.923076629638672,-328.3881622105837,-906.6153602600097) " stroke="#000000" xml:space="preserve" text-anchor="middle" font-family="serif" font-size="24" id="svg_1" y="104" x="46.642635" stroke-width="0" fill="#000000">EVJ</text>
  <rect stroke="#000000" id="svg_7" height="444.00002" width="607.999988" y="12.999981" x="15.000009" opacity="0.25" stroke-linecap="null" stroke-linejoin="null" stroke-dasharray="null" stroke-width="0" fill="#383887"/>
  <path stroke="#000000" id="svg_12" d="m28.374862,93.107413c-2.398278,-2.188162 3.756507,-2.246733 2.789563,-4.672352c1.767908,-3.214269 6.364652,-5.159853 7.041596,-8.812379c-1.864344,-1.015142 -2.93659,-3.470221 0.620265,-3.178752c2.60838,-1.534536 2.282387,-4.674776 3.06681,-6.979258c0.734821,-3.719485 0.901226,-7.484124 1.216849,-11.234169c-3.018056,-0.181183 -6.110768,-0.054978 -9.051486,-0.659401c0.084589,-2.493935 6.068258,-1.537007 6.340597,-3.890327c4.35069,-0.061447 0.240983,-5.140317 -1.53078,-6.352051c-2.267838,-2.044123 -3.778336,-5.270985 -2.054297,-7.795444c2.465938,-1.280544 8.041626,-0.501067 7.789605,-3.866314c-1.677045,-0.747146 -3.806305,-0.272679 -5.685949,-0.404811c0.115594,-1.569217 0.231186,-3.138432 0.34678,-4.70765c2.485802,-0.149441 4.97161,-0.298893 7.457413,-0.448348c-1.261759,-1.024926 -3.150123,-1.779215 -3.622663,-3.229026c1.607299,-2.065056 5.481003,-1.882764 8.256079,-1.863239c2.69845,-0.145472 7.618401,1.261305 3.940247,3.527235c-0.298118,0.556453 -3.199485,1.940041 -1.406481,1.789203c2.295728,0 4.59145,0 6.887172,0c-0.006598,1.534051 -0.059361,3.083348 0.401595,4.584602c-1.7524,1.020002 -7.434963,-0.871287 -5.816956,2.275918c1.821864,1.315817 4.612118,1.281092 6.922906,1.860583c1.347844,0.105245 2.420054,0.379756 1.93434,1.611126c0.253338,2.286234 -0.484682,4.586054 -2.495353,6.321539c-1.423315,1.810931 -4.620058,4.07801 -3.673717,6.174181c1.79044,-0.227787 3.22871,0.691034 1.798652,1.724323c1.467572,0.849271 6.635454,0.654785 5.51771,2.780966c-2.618311,0.677404 -5.431038,0.395189 -8.147501,0.464314c0.72329,5.803724 1.723368,11.607998 3.394433,17.291349c0.976382,1.261127 4.854942,2.230393 1.671854,3.874495c-1.187926,3.061745 2.606374,5.35426 4.989356,7.319362c2.620068,1.533694 1.348865,4.619619 5.05549,5.111788c2.91913,2.210098 -4.007756,2.151258 -5.786155,2.156078c-11.773211,0.099218 -23.559122,0.23803 -35.327727,-0.058481c-0.963401,-0.095029 -2.153654,-0.073289 -2.840243,-0.715063l-0.000003,0.000002z" opacity="0.25" stroke-linecap="null" stroke-linejoin="null" stroke-dasharray="null" stroke-width="0" fill="#383887"/>
  <path stroke="#000000" id="svg_15" d="m263.122343,417.445997c-7.436469,-12.367872 11.647995,-12.698926 8.649741,-26.408946c5.481845,-18.167608 19.735213,-29.164387 21.834245,-49.809099c-5.780869,-5.737759 -9.105638,-19.614293 1.923288,-17.966865c8.08794,-8.673464 7.077117,-26.422642 9.509418,-39.447981c2.278498,-21.023176 2.794479,-42.301571 3.773147,-63.497472c-9.358247,-1.024078 -18.947978,-0.310745 -28.06642,-3.727049c0.26229,-14.096155 18.816168,-8.687431 19.660624,-21.988811c13.490409,-0.347309 0.747229,-29.05396 -4.74657,-35.902897c-7.032007,-11.553739 -11.715684,-29.792524 -6.369866,-44.061206c7.646263,-7.237857 24.935091,-2.832118 24.153636,-21.853079c-5.200101,-4.222999 -11.802409,-1.541229 -17.63072,-2.288062c0.358431,-8.869488 0.716851,-17.738964 1.075279,-26.608451c7.70786,-0.844667 15.415735,-1.689401 23.123591,-2.534147c-3.912402,-5.79306 -9.767751,-10.056427 -11.232981,-18.251017c4.983836,-11.67205 16.995233,-10.64171 25.600056,-10.531351c8.367228,-0.822233 23.622775,7.129115 12.217733,19.936546c-0.924393,3.145169 -9.920811,10.965449 -4.361149,10.112887c7.118484,0 14.236949,0 21.355415,0c-0.020459,8.670729 -0.184064,17.427619 1.245247,25.912968c-5.433762,5.765229 -23.053982,-4.924666 -18.036943,12.863885c5.649152,7.437227 14.301039,7.240955 21.466217,10.516345c4.17933,0.594863 7.503988,2.146447 5.997909,9.106364c0.785538,12.922192 -1.502879,25.921175 -7.737472,35.730438c-4.413347,10.235697 -14.325656,23.049622 -11.391287,34.897545c5.551711,-1.287492 10.01143,3.905844 5.577174,9.746174c4.55058,4.800227 20.5749,3.700959 17.109052,15.718498c-8.118731,3.828805 -16.840304,2.233677 -25.26338,2.624389c2.242743,32.803658 5.343737,65.610424 10.525296,97.733708c3.027519,7.128109 15.05397,12.606569 5.184005,21.899326c-3.683467,17.305515 8.081717,30.263209 15.470754,41.370308c8.124182,8.668705 4.182496,26.11089 15.675823,28.892715c9.051499,12.491858 -12.427059,12.159285 -17.941434,12.186528c-36.505815,0.560797 -73.051006,1.345393 -109.542536,-0.330539c-2.987265,-0.53712 -6.677945,-0.414248 -8.806887,-4.041666l-0.000009,0.000017z" opacity="0.25" stroke-linecap="null" stroke-linejoin="null" stroke-dasharray="null" stroke-width="0" fill="#383887"/>
  <path id="svg_16" stroke="#000000" d="m178.948051,119.605826c-2.398279,-2.188162 3.756506,-2.246733 2.789562,-4.672352c1.767908,-3.214269 6.364653,-5.159853 7.041596,-8.812379c-1.864344,-1.015142 -2.93659,-3.470221 0.620265,-3.178753c2.60838,-1.534536 2.282387,-4.674775 3.06681,-6.979258c0.734821,-3.719485 0.901226,-7.484124 1.216849,-11.234168c-3.018057,-0.181183 -6.110768,-0.054978 -9.051487,-0.659401c0.084589,-2.493935 6.068259,-1.537007 6.340598,-3.890328c4.350689,-0.061447 0.240983,-5.140316 -1.53078,-6.352051c-2.267839,-2.044123 -3.778336,-5.270985 -2.054297,-7.795444c2.465938,-1.280544 8.041626,-0.501067 7.789605,-3.866314c-1.677045,-0.747146 -3.806305,-0.272679 -5.685949,-0.404811c0.115595,-1.569217 0.231186,-3.138432 0.34678,-4.707649c2.485803,-0.149441 4.971611,-0.298894 7.457413,-0.448349c-1.261759,-1.024926 -3.150123,-1.779214 -3.622663,-3.229026c1.607299,-2.065055 5.481003,-1.882764 8.256079,-1.863239c2.698451,-0.145472 7.618401,1.261305 3.940248,3.527235c-0.298119,0.556453 -3.199485,1.940041 -1.406481,1.789203c2.295728,0 4.59145,0 6.887172,0c-0.006598,1.534052 -0.059361,3.083348 0.401595,4.584602c-1.752401,1.020002 -7.434964,-0.871287 -5.816957,2.275918c1.821865,1.315817 4.612119,1.281092 6.922906,1.860584c1.347844,0.105245 2.420054,0.379756 1.93434,1.611126c0.253338,2.286234 -0.484682,4.586054 -2.495353,6.321539c-1.423315,1.810931 -4.620058,4.07801 -3.673717,6.174181c1.79044,-0.227787 3.22871,0.691034 1.798652,1.724323c1.467573,0.849271 6.635454,0.654785 5.51771,2.780965c-2.61831,0.677404 -5.431038,0.395189 -8.1475,0.464315c0.72329,5.803724 1.723368,11.607998 3.394433,17.291348c0.976382,1.261127 4.854941,2.230393 1.671854,3.874496c-1.187927,3.061745 2.606373,5.35426 4.989355,7.319362c2.620068,1.533694 1.348865,4.619619 5.05549,5.111788c2.91913,2.210098 -4.007756,2.151258 -5.786155,2.156078c-11.773212,0.099218 -23.559123,0.238031 -35.327728,-0.05848c-0.9634,-0.095029 -2.153653,-0.07329 -2.840242,-0.715064l-0.000003,0.000003z" opacity="0.25" stroke-linecap="null" stroke-linejoin="null" stroke-dasharray="null" stroke-width="0" fill="#383887"/>
  <path id="svg_18" stroke="#000000" d="m504.948051,402.605826c-2.398279,-2.188162 3.756506,-2.246733 2.789562,-4.672352c1.767908,-3.214269 6.364653,-5.159853 7.041596,-8.812379c-1.864344,-1.015142 -2.93659,-3.470221 0.620265,-3.178753c2.60838,-1.534536 2.282387,-4.674775 3.06681,-6.979258c0.734821,-3.719485 0.901226,-7.484124 1.216849,-11.234168c-3.018057,-0.181183 -6.110768,-0.054978 -9.051487,-0.659401c0.084589,-2.493935 6.068259,-1.537007 6.340598,-3.890328c4.350689,-0.061447 0.240983,-5.140316 -1.53078,-6.352051c-2.267839,-2.044123 -3.778336,-5.270985 -2.054297,-7.795444c2.465938,-1.280544 8.041626,-0.501067 7.789605,-3.866314c-1.677045,-0.747146 -3.806305,-0.272679 -5.685949,-0.404811c0.115595,-1.569217 0.231186,-3.138432 0.34678,-4.707649c2.485803,-0.149441 4.971611,-0.298894 7.457413,-0.448349c-1.261759,-1.024926 -3.150123,-1.779214 -3.622663,-3.229026c1.607299,-2.065055 5.481003,-1.882764 8.256079,-1.863239c2.698451,-0.145472 7.618401,1.261305 3.940248,3.527235c-0.298119,0.556453 -3.199485,1.940041 -1.406481,1.789203c2.295728,0 4.59145,0 6.887172,0c-0.006598,1.534052 -0.059361,3.083348 0.401595,4.584602c-1.752401,1.020002 -7.434964,-0.871287 -5.816957,2.275918c1.821865,1.315817 4.612119,1.281092 6.922906,1.860584c1.347844,0.105245 2.420054,0.379756 1.93434,1.611126c0.253338,2.286234 -0.484682,4.586054 -2.495353,6.321539c-1.423315,1.810931 -4.620058,4.07801 -3.673717,6.174181c1.79044,-0.227787 3.22871,0.691034 1.798652,1.724323c1.467573,0.849271 6.635454,0.654785 5.51771,2.780965c-2.61831,0.677404 -5.431038,0.395189 -8.1475,0.464315c0.72329,5.803724 1.723368,11.607998 3.394433,17.291348c0.976382,1.261127 4.854941,2.230393 1.671854,3.874496c-1.187927,3.061745 2.606373,5.35426 4.989355,7.319362c2.620068,1.533694 1.348865,4.619619 5.05549,5.111788c2.91913,2.210098 -4.007756,2.151258 -5.786155,2.156078c-11.773212,0.099218 -23.559123,0.238031 -35.327728,-0.05848c-0.9634,-0.095029 -2.153653,-0.07329 -2.840242,-0.715064l-0.000003,0.000003z" opacity="0.25" stroke-linecap="null" stroke-linejoin="null" stroke-dasharray="null" stroke-width="0" fill="#383887"/>
  <path stroke="#000000" id="svg_19" d="m464.639029,214.111229c-1.072439,-0.951375 1.679798,-0.97684 1.24741,-2.031457c0.790556,-1.397508 2.846085,-2.243414 3.148794,-3.831469c-0.83368,-0.441366 -1.313156,-1.508792 0.277364,-1.382066c1.16639,-0.66719 1.020616,-2.032511 1.371387,-3.03446c0.32859,-1.617167 0.403002,-3.253967 0.544139,-4.884421c-1.349586,-0.078775 -2.732555,-0.023903 -4.047557,-0.286696c0.037826,-1.08432 2.713546,-0.668264 2.835328,-1.691447c1.945499,-0.026716 0.10776,-2.23492 -0.68452,-2.761761c-1.014111,-0.888749 -1.68956,-2.291733 -0.918621,-3.389323c1.102695,-0.556758 3.595977,-0.217855 3.483281,-1.681006c-0.749925,-0.324846 -1.702067,-0.118556 -2.542588,-0.176005c0.051691,-0.682268 0.10338,-1.364536 0.15507,-2.046804c1.111578,-0.064974 2.223157,-0.129954 3.334735,-0.194934c-0.564221,-0.44562 -1.408642,-0.773571 -1.619948,-1.403924c0.718737,-0.89785 2.450943,-0.818593 3.691874,-0.810104c1.206668,-0.063249 3.406724,0.548393 1.761962,1.53358c-0.13331,0.241936 -1.430715,0.843496 -0.628937,0.777914c1.026582,0 2.053161,0 3.07974,0c-0.00295,0.666979 -0.026544,1.340586 0.179581,1.993305c-0.783622,0.443479 -3.324696,-0.37882 -2.601171,0.98953c0.814684,0.572094 2.062403,0.556997 3.095719,0.80895c0.602716,0.045759 1.082177,0.165111 0.86498,0.70049c0.113285,0.994015 -0.216735,1.993936 -1.115848,2.748495c-0.636464,0.787361 -2.065953,1.773048 -1.642778,2.684426c0.800632,-0.099038 1.443784,0.30045 0.804304,0.749706c0.656255,0.369248 2.967179,0.284689 2.467357,1.209115c-1.170831,0.294523 -2.4286,0.171821 -3.643321,0.201876c0.323434,2.523358 0.770639,5.046955 1.51789,7.517977c0.436609,0.548316 2.170986,0.969736 0.747604,1.684563c-0.531206,1.331193 1.165493,2.327939 2.231092,3.182331c1.171617,0.666823 0.603173,2.00853 2.260666,2.222516c1.305349,0.960912 -1.79215,0.93533 -2.587397,0.937425c-5.264632,0.043138 -10.534943,0.103492 -15.797516,-0.025426c-0.430804,-0.041317 -0.96305,-0.031865 -1.270072,-0.310897l-0.000001,0.000001z" opacity="0.25" stroke-linecap="null" stroke-linejoin="null" stroke-dasharray="null" stroke-width="0" fill="#383887"/>
 </g>
</svg>